M48
;Layer_Color=9474304
;FILE_FORMAT=4:4
METRIC,LZ
;TYPE=PLATED
T1F00S00C0.3000
T2F00S00C0.9000
%
T01
X00966001Y00386
X00976001Y00406
X00996001
X00986001Y00426
X00996001Y00446
X00976001
X0095758Y0045212
X00986001Y00466
X0089916Y0047869
X0090043Y0044323
X0089962Y0042672
X00876001Y00406
X0085598Y0039751
X0083058Y0039497
X0080899Y0039628
X0081915Y0042799
X0080899Y0044196
X00806001Y00466
X0083185Y004699
X0086995
X0085217Y0043307
X0076327Y0042291
X0074676Y0039751
X0074803Y0046863
T02
X0093218Y0039497
Y0042037
Y0044577
Y0047117
M30
