G04*
G04 #@! TF.GenerationSoftware,Altium Limited,Altium Designer,21.6.1 (37)*
G04*
G04 Layer_Physical_Order=1*
G04 Layer_Color=255*
%FSLAX44Y44*%
%MOMM*%
G71*
G04*
G04 #@! TF.SameCoordinates,433EC3A0-72F9-41F9-BABD-52A87CDF1033*
G04*
G04*
G04 #@! TF.FilePolarity,Positive*
G04*
G01*
G75*
%ADD13C,0.2500*%
%ADD15R,0.9000X0.7000*%
%ADD16R,0.8000X0.8000*%
%ADD17R,0.7000X0.9000*%
G04:AMPARAMS|DCode=18|XSize=2mm|YSize=10mm|CornerRadius=0.5mm|HoleSize=0mm|Usage=FLASHONLY|Rotation=90.000|XOffset=0mm|YOffset=0mm|HoleType=Round|Shape=RoundedRectangle|*
%AMROUNDEDRECTD18*
21,1,2.0000,9.0000,0,0,90.0*
21,1,1.0000,10.0000,0,0,90.0*
1,1,1.0000,4.5000,0.5000*
1,1,1.0000,4.5000,-0.5000*
1,1,1.0000,-4.5000,-0.5000*
1,1,1.0000,-4.5000,0.5000*
%
%ADD18ROUNDEDRECTD18*%
%ADD19R,8.0000X1.5000*%
%ADD20R,10.0000X2.0000*%
G04:AMPARAMS|DCode=21|XSize=1.01mm|YSize=0.27mm|CornerRadius=0.0675mm|HoleSize=0mm|Usage=FLASHONLY|Rotation=270.000|XOffset=0mm|YOffset=0mm|HoleType=Round|Shape=RoundedRectangle|*
%AMROUNDEDRECTD21*
21,1,1.0100,0.1350,0,0,270.0*
21,1,0.8750,0.2700,0,0,270.0*
1,1,0.1350,-0.0675,-0.4375*
1,1,0.1350,-0.0675,0.4375*
1,1,0.1350,0.0675,0.4375*
1,1,0.1350,0.0675,-0.4375*
%
%ADD21ROUNDEDRECTD21*%
G04:AMPARAMS|DCode=22|XSize=1.01mm|YSize=0.27mm|CornerRadius=0.0675mm|HoleSize=0mm|Usage=FLASHONLY|Rotation=180.000|XOffset=0mm|YOffset=0mm|HoleType=Round|Shape=RoundedRectangle|*
%AMROUNDEDRECTD22*
21,1,1.0100,0.1350,0,0,180.0*
21,1,0.8750,0.2700,0,0,180.0*
1,1,0.1350,-0.4375,0.0675*
1,1,0.1350,0.4375,0.0675*
1,1,0.1350,0.4375,-0.0675*
1,1,0.1350,-0.4375,-0.0675*
%
%ADD22ROUNDEDRECTD22*%
%ADD23R,1.0000X1.4000*%
%ADD24R,1.0000X0.8000*%
%ADD25R,0.9300X0.8900*%
%ADD40R,3.2500X3.2500*%
%ADD41C,0.3000*%
%ADD42C,1.5000*%
%ADD43R,1.5000X1.5000*%
%ADD44C,0.7000*%
G36*
X838350Y482360D02*
X846496D01*
X849826Y479030D01*
X849300Y477760D01*
X838350D01*
Y470715D01*
X837080Y470036D01*
X837050Y470056D01*
Y470934D01*
X836258Y472846D01*
X834796Y474308D01*
X832884Y475100D01*
X830816D01*
X828904Y474308D01*
X827442Y472846D01*
X826650Y470934D01*
Y468866D01*
X827442Y466954D01*
X828904Y465492D01*
X830816Y464700D01*
X832703D01*
X833922Y463481D01*
Y459740D01*
X834073Y458980D01*
Y452295D01*
X834085Y452235D01*
X833005Y451155D01*
X832945Y451166D01*
X824195D01*
X823268Y450982D01*
X822483Y450457D01*
X821958Y449672D01*
X821774Y448745D01*
Y447395D01*
X821958Y446468D01*
X822424Y445570D01*
X821958Y444672D01*
X821774Y443745D01*
Y442395D01*
X821958Y441468D01*
X822483Y440683D01*
X823268Y440158D01*
X824195Y439973D01*
X832945D01*
X833872Y440158D01*
X834657Y440683D01*
X835182Y441468D01*
X835367Y442395D01*
Y443745D01*
X835182Y444672D01*
X834716Y445570D01*
X835182Y446468D01*
X835367Y447395D01*
Y448745D01*
X835355Y448805D01*
X836435Y449885D01*
X836495Y449874D01*
X837845D01*
X838772Y450058D01*
X839670Y450524D01*
X840568Y450058D01*
X841495Y449874D01*
X842845D01*
X843772Y450058D01*
X844670Y450524D01*
X845568Y450058D01*
X846495Y449874D01*
X847845D01*
X848772Y450058D01*
X849670Y450524D01*
X850568Y450058D01*
X851495Y449874D01*
X852845D01*
X853772Y450058D01*
X854670Y450524D01*
X855568Y450058D01*
X856495Y449874D01*
X857845D01*
X858772Y450058D01*
X859670Y450524D01*
X860568Y450058D01*
X861495Y449874D01*
X862845D01*
X863772Y450058D01*
X864670Y450524D01*
X865568Y450058D01*
X866495Y449874D01*
X867845D01*
X867905Y449885D01*
X868986Y448805D01*
X868973Y448745D01*
Y447395D01*
X869158Y446468D01*
X869624Y445570D01*
X869158Y444672D01*
X868973Y443745D01*
Y442395D01*
X869158Y441468D01*
X869624Y440570D01*
X869158Y439672D01*
X868973Y438745D01*
Y437395D01*
X869158Y436468D01*
X869624Y435570D01*
X869158Y434672D01*
X868973Y433745D01*
Y432395D01*
X869158Y431468D01*
X869624Y430570D01*
X869158Y429672D01*
X868973Y428745D01*
Y427395D01*
X869158Y426468D01*
X869624Y425570D01*
X869158Y424672D01*
X868973Y423745D01*
Y422395D01*
X869158Y421468D01*
X869624Y420570D01*
X869158Y419672D01*
X868973Y418745D01*
Y417395D01*
X868986Y417335D01*
X867905Y416255D01*
X867845Y416267D01*
X866495D01*
X865568Y416082D01*
X864670Y415616D01*
X863772Y416082D01*
X862845Y416267D01*
X861495D01*
X860568Y416082D01*
X859670Y415616D01*
X858772Y416082D01*
X857845Y416267D01*
X856495D01*
X855568Y416082D01*
X854670Y415616D01*
X853772Y416082D01*
X852845Y416267D01*
X851495D01*
X850568Y416082D01*
X849670Y415616D01*
X848772Y416082D01*
X847845Y416267D01*
X846495D01*
X845568Y416082D01*
X844670Y415616D01*
X843772Y416082D01*
X842845Y416267D01*
X841495D01*
X840568Y416082D01*
X839670Y415616D01*
X838772Y416082D01*
X837845Y416267D01*
X836495D01*
X836435Y416255D01*
X835355Y417335D01*
X835367Y417395D01*
Y418745D01*
X835182Y419672D01*
X834716Y420570D01*
X835182Y421468D01*
X835367Y422395D01*
Y423745D01*
X835182Y424672D01*
X834716Y425570D01*
X835182Y426468D01*
X835367Y427395D01*
Y428745D01*
X835182Y429672D01*
X834716Y430570D01*
X835182Y431468D01*
X835367Y432395D01*
Y433745D01*
X835182Y434672D01*
X834657Y435457D01*
X833872Y435982D01*
X832945Y436166D01*
X828527D01*
X828470Y436178D01*
X824337D01*
X823819Y436697D01*
X822843Y437349D01*
X821692Y437578D01*
X818424D01*
X818072Y437648D01*
X800421D01*
X800100Y437969D01*
Y491481D01*
X838350D01*
Y482360D01*
D02*
G37*
G36*
X1005831Y375929D02*
X847564D01*
X846560Y376570D01*
X846560Y377199D01*
Y387500D01*
X846560Y387970D01*
X847499Y388770D01*
X850900D01*
Y401170D01*
X846563D01*
X846482Y401409D01*
X847393Y402673D01*
X847845D01*
X848772Y402858D01*
X849670Y403324D01*
X850568Y402858D01*
X851495Y402673D01*
X852845D01*
X853772Y402858D01*
X854670Y403324D01*
X855568Y402858D01*
X856495Y402673D01*
X857845D01*
X858772Y402858D01*
X859670Y403324D01*
X860568Y402858D01*
X861495Y402673D01*
X862845D01*
X863772Y402858D01*
X864670Y403324D01*
X865568Y402858D01*
X866495Y402673D01*
X867845D01*
X868772Y402858D01*
X869557Y403383D01*
X870082Y404168D01*
X870266Y405095D01*
Y413845D01*
X870255Y413905D01*
X871335Y414986D01*
X871395Y414973D01*
X880145D01*
X881072Y415158D01*
X881857Y415683D01*
X883355Y415639D01*
X883570Y415480D01*
Y404050D01*
X896970D01*
Y420815D01*
X898133Y421707D01*
X898586Y421520D01*
X900654D01*
X901469Y421857D01*
X902570Y420939D01*
Y404050D01*
X915970D01*
Y421450D01*
X915520Y421640D01*
Y432040D01*
X903120D01*
Y432040D01*
X901850Y431425D01*
X900654Y431920D01*
X898586D01*
X896674Y431128D01*
X896470Y430924D01*
X895200Y431450D01*
Y432040D01*
X883791D01*
X882739Y432345D01*
X882567Y433213D01*
Y433745D01*
X882382Y434672D01*
X881916Y435570D01*
X882122Y435967D01*
X882667Y436508D01*
X883613Y436640D01*
X895200D01*
Y439310D01*
X896470Y439836D01*
X897484Y438822D01*
X899396Y438030D01*
X901464D01*
X902064Y438278D01*
X903120Y437573D01*
Y436640D01*
X915520D01*
Y446456D01*
X915520Y447040D01*
X915520Y447040D01*
X915360Y447660D01*
X915360D01*
Y452337D01*
X916533Y452823D01*
X918722Y450634D01*
Y441441D01*
X918951Y440290D01*
X919603Y439315D01*
X928544Y430374D01*
Y428894D01*
X926531Y427732D01*
X924818Y426019D01*
X923607Y423921D01*
X922980Y421581D01*
Y419159D01*
X923607Y416819D01*
X924818Y414721D01*
X926531Y413008D01*
X928629Y411797D01*
X930969Y411170D01*
X931709D01*
X932235Y409900D01*
X930763Y408428D01*
X927851D01*
X926701Y408199D01*
X925725Y407547D01*
X911076Y392898D01*
X906470D01*
Y399450D01*
X893070D01*
Y382050D01*
X906470D01*
Y386882D01*
X912321D01*
X913473Y387111D01*
X914448Y387763D01*
X921710Y395025D01*
X922980Y394499D01*
Y393759D01*
X923607Y391419D01*
X924818Y389321D01*
X926531Y387608D01*
X928629Y386397D01*
X930969Y385770D01*
X933391D01*
X935731Y386397D01*
X937829Y387608D01*
X939542Y389321D01*
X940753Y391419D01*
X941380Y393759D01*
Y396181D01*
X940753Y398521D01*
X939542Y400619D01*
X937829Y402332D01*
X936016Y403378D01*
X935587Y404745D01*
X944757Y413915D01*
X945409Y414891D01*
X945638Y416041D01*
Y447160D01*
X947590Y449112D01*
X953234D01*
X954634Y447712D01*
X956546Y446920D01*
X958614D01*
X960526Y447712D01*
X961988Y449174D01*
X962780Y451086D01*
Y453154D01*
X961988Y455066D01*
X960526Y456528D01*
X958614Y457320D01*
X956546D01*
X954634Y456528D01*
X953234Y455128D01*
X946345D01*
X946345Y455128D01*
X945193Y454899D01*
X944218Y454247D01*
X944218Y454247D01*
X941148Y451177D01*
X939576Y451360D01*
X939542Y451419D01*
X937829Y453132D01*
X935731Y454343D01*
X933391Y454970D01*
X930969D01*
X929285Y454519D01*
X923818Y459986D01*
Y472882D01*
X923589Y474033D01*
X922937Y475009D01*
X922937Y475009D01*
X907734Y490211D01*
X907955Y491091D01*
X908222Y491481D01*
X1005831D01*
Y375929D01*
D02*
G37*
G36*
X802640Y420490D02*
X802640D01*
X802374Y419330D01*
X802290D01*
Y407930D01*
X815246D01*
X817742Y405434D01*
Y392346D01*
X813866Y388470D01*
X807720D01*
Y376070D01*
X806508Y375929D01*
X800100D01*
Y431632D01*
X802640D01*
Y420490D01*
D02*
G37*
D13*
X831850Y469807D02*
X836930Y464727D01*
Y459740D02*
Y464727D01*
X831850Y469807D02*
Y469900D01*
X855980Y382270D02*
Y397510D01*
X824770Y438170D02*
X828470D01*
X818072Y434640D02*
X818142Y434570D01*
X823092Y433170D02*
X828470D01*
X821692Y434570D02*
X823092Y433170D01*
X824170Y438770D02*
X824770Y438170D01*
X812700Y425318D02*
Y426640D01*
X819812Y438840D02*
X819882Y438770D01*
X812700Y425318D02*
X816478Y421540D01*
X816200Y438840D02*
X819812D01*
X818142Y434570D02*
X821692D01*
X816478Y421540D02*
X821822D01*
X819882Y438770D02*
X824170D01*
X823192Y422910D02*
X828040D01*
X821822Y421540D02*
X823192Y422910D01*
X828470Y433170D02*
X828570Y433070D01*
X812800Y413630D02*
Y425218D01*
X828470Y438170D02*
X828570Y438070D01*
X850820D01*
X755650Y444500D02*
X763170Y436980D01*
X796835D01*
X799175Y434640D01*
X818072D01*
X813080Y441960D02*
X816200Y438840D01*
X814070Y381000D02*
Y384420D01*
X820750Y391100D02*
Y406680D01*
X814070Y384420D02*
X820750Y391100D01*
X812800Y413630D02*
X813800D01*
X820750Y406680D01*
X808990Y441960D02*
X809270D01*
X942630Y448405D02*
X946345Y452120D01*
X942630Y416041D02*
Y448405D01*
X932009Y405420D02*
X942630Y416041D01*
X912321Y389890D02*
X927851Y405420D01*
X932009D01*
X900430Y389890D02*
X912321D01*
X946345Y452120D02*
X957580D01*
X884526Y488310D02*
X905382D01*
X920810Y472882D01*
Y458740D02*
X932180Y447370D01*
X916610Y457000D02*
Y464582D01*
X921730Y441441D02*
Y451880D01*
X916610Y457000D02*
X921730Y451880D01*
X920810Y458740D02*
Y472882D01*
X931552Y422268D02*
X933450Y420370D01*
X858520Y487680D02*
X883896D01*
X912782Y468410D02*
X916610Y464582D01*
X883896Y487680D02*
X884526Y488310D01*
X892938Y468410D02*
X912782D01*
X932180Y445770D02*
Y447370D01*
X854100Y479010D02*
X882338D01*
X931552Y422268D02*
Y431620D01*
X921730Y441441D02*
X931552Y431620D01*
X882338Y479010D02*
X892938Y468410D01*
X827920Y382270D02*
X840740D01*
X827920Y382270D02*
X827920Y382270D01*
X842170Y399500D02*
X847090Y394580D01*
X842170Y399500D02*
Y409470D01*
X847090Y393700D02*
Y394580D01*
X857250Y458470D02*
Y463550D01*
X864621Y465219D02*
X869302Y469900D01*
X858919Y465219D02*
X864621D01*
X857250Y463550D02*
X858919Y465219D01*
X869302Y469900D02*
X869950D01*
X899560Y426780D02*
X899620Y426720D01*
X889000Y426840D02*
X889060Y426780D01*
X899560D01*
X907930Y443230D02*
X909320Y441840D01*
X900430Y443230D02*
X907930D01*
X909320Y415290D02*
Y426840D01*
Y415290D02*
X909320Y415290D01*
X889000Y414020D02*
Y426840D01*
Y414020D02*
X890270Y412750D01*
Y441960D02*
Y455750D01*
X889660Y456360D02*
X890270Y455750D01*
X908660Y443840D02*
Y456360D01*
X908050Y443230D02*
X908660Y443840D01*
X845550Y487560D02*
X854100Y479010D01*
X844550Y487560D02*
X845550D01*
X852270Y459310D02*
Y466040D01*
X858520Y472290D02*
Y472440D01*
X852170Y459210D02*
X852270Y459310D01*
Y466040D02*
X858520Y472290D01*
X847170Y459210D02*
Y470310D01*
Y458550D02*
Y459210D01*
X844920Y472560D02*
X847170Y470310D01*
X847090Y458470D02*
X847170Y458550D01*
X844550Y472560D02*
X844920D01*
D15*
X909320Y426840D02*
D03*
Y441840D02*
D03*
X889000Y441840D02*
D03*
Y426840D02*
D03*
X844550Y487560D02*
D03*
Y472560D02*
D03*
X859790Y487560D02*
D03*
Y472560D02*
D03*
D16*
X855860Y382270D02*
D03*
X840860D02*
D03*
D17*
X830700Y394970D02*
D03*
X845700D02*
D03*
X812920Y382270D02*
D03*
X827920D02*
D03*
D18*
X734076Y397430D02*
D03*
D19*
X734060Y422830D02*
D03*
Y443230D02*
D03*
D20*
X734076Y468630D02*
D03*
D21*
X837170Y456670D02*
D03*
X842170D02*
D03*
X847170D02*
D03*
X852170D02*
D03*
X857170D02*
D03*
X862170D02*
D03*
X867170D02*
D03*
Y409470D02*
D03*
X862170D02*
D03*
X857170D02*
D03*
X852170D02*
D03*
X847170D02*
D03*
X842170D02*
D03*
X837170D02*
D03*
D22*
X875770Y448070D02*
D03*
Y443070D02*
D03*
Y438070D02*
D03*
Y433070D02*
D03*
Y428070D02*
D03*
Y423070D02*
D03*
Y418070D02*
D03*
X828570D02*
D03*
Y423070D02*
D03*
Y428070D02*
D03*
Y433070D02*
D03*
Y438070D02*
D03*
Y443070D02*
D03*
Y448070D02*
D03*
D23*
X899160Y478360D02*
D03*
X908660Y456360D02*
D03*
X889660D02*
D03*
X899770Y390750D02*
D03*
X890270Y412750D02*
D03*
X909270D02*
D03*
D24*
X808990Y396630D02*
D03*
Y413630D02*
D03*
D25*
Y442040D02*
D03*
Y426640D02*
D03*
D40*
X852170Y433070D02*
D03*
D41*
X819230Y428070D02*
X828570D01*
X819150Y427990D02*
X819230Y428070D01*
X830580Y394970D02*
Y396090D01*
X828570Y398100D02*
Y418070D01*
Y398100D02*
X830580Y396090D01*
X837170Y401560D02*
Y409470D01*
X833580Y397970D02*
X837170Y401560D01*
D42*
X932180Y394970D02*
D03*
Y420370D02*
D03*
Y445770D02*
D03*
D43*
Y471170D02*
D03*
D44*
X986001Y466000D02*
D03*
X996001Y446000D02*
D03*
X986001Y426000D02*
D03*
X996001Y406000D02*
D03*
X976001Y446000D02*
D03*
Y406000D02*
D03*
X966001Y386000D02*
D03*
X876001Y406000D02*
D03*
X806001Y466000D02*
D03*
X831850Y469900D02*
D03*
X763270Y422910D02*
D03*
X819150Y427990D02*
D03*
X748030Y468630D02*
D03*
X899160Y478690D02*
D03*
X957580Y452120D02*
D03*
X830580Y394970D02*
D03*
X746760Y397510D02*
D03*
X808990Y396280D02*
D03*
X855980Y397510D02*
D03*
X852170Y433070D02*
D03*
X808990Y441960D02*
D03*
X869950Y469900D02*
D03*
X899620Y426720D02*
D03*
X900430Y443230D02*
D03*
M02*
