G04*
G04 #@! TF.GenerationSoftware,Altium Limited,Altium Designer,21.6.1 (37)*
G04*
G04 Layer_Color=16711935*
%FSLAX44Y44*%
%MOMM*%
G71*
G04*
G04 #@! TF.SameCoordinates,433EC3A0-72F9-41F9-BABD-52A87CDF1033*
G04*
G04*
G04 #@! TF.FilePolarity,Negative*
G04*
G01*
G75*
%ADD12C,0.1270*%
%ADD38C,1.7000*%
%ADD39R,1.7000X1.7000*%
%ADD48C,0.0100*%
%ADD49R,1.9000X0.8000*%
%ADD50R,3.0000X1.2000*%
G36*
X828670Y480903D02*
X830182Y479452D01*
X831004Y477525D01*
Y476477D01*
X831004Y476474D01*
Y476476D01*
X831003Y476374D01*
X831004Y476474D01*
Y476464D01*
X831004Y476438D01*
X831003Y476413D01*
X831003Y476387D01*
X831003Y476374D01*
Y476374D01*
D01*
D01*
X830964Y472543D01*
X830964Y472543D01*
X830964Y472543D01*
X830964Y472534D01*
X830959Y472519D01*
X830949Y472505D01*
X830935Y472495D01*
X830928Y472492D01*
X830928D01*
X822095Y469529D01*
X822084Y469525D01*
X822061Y469528D01*
X822040Y469540D01*
X822027Y469559D01*
X822025Y469570D01*
X820831Y476008D01*
X820820Y476005D01*
X820796Y476009D01*
X820776Y476022D01*
X820764Y476043D01*
X820763Y476055D01*
X820676Y477100D01*
X821337Y479088D01*
X822725Y480658D01*
X824617Y481559D01*
X826711Y481645D01*
X828670Y480903D01*
D02*
G37*
G36*
X830964Y472543D02*
Y472543D01*
Y472543D01*
Y472543D01*
D02*
G37*
G36*
X877466Y439269D02*
X880986Y438583D01*
X884359Y437364D01*
X887503Y435641D01*
X890345Y433454D01*
X891581Y432155D01*
X890025Y432154D01*
X886929Y431846D01*
X883901Y431135D01*
X880992Y430034D01*
X878252Y428561D01*
X875728Y426742D01*
X873465Y424608D01*
X871501Y422196D01*
X870642Y420899D01*
X870642D01*
X870514Y423084D01*
X869773Y427395D01*
X868402Y431549D01*
X866431Y435454D01*
X865234Y437286D01*
Y437286D01*
X866867Y438026D01*
X870321Y438987D01*
X873883Y439404D01*
X877466Y439269D01*
D02*
G37*
G36*
X851031Y430578D02*
X851031D01*
X851398Y428889D01*
X851772Y425453D01*
X851785Y421996D01*
X851436Y418557D01*
X850730Y415173D01*
X849672Y411882D01*
X848277Y408719D01*
X846558Y405720D01*
X845546Y404319D01*
X844767Y404202D01*
X843202Y404024D01*
X841632Y403903D01*
X840058Y403840D01*
X839270Y403838D01*
X840234Y405192D01*
X841940Y408042D01*
X843337Y411056D01*
X844409Y414200D01*
X845144Y417440D01*
X845534Y420739D01*
X845574Y424061D01*
X845265Y427369D01*
X844980Y429006D01*
X845750Y429144D01*
X847280Y429472D01*
X848795Y429866D01*
X850291Y430325D01*
X851031Y430578D01*
X851031Y430578D01*
D02*
G37*
%LPC*%
G36*
X831004Y476477D02*
X831004Y476477D01*
Y476477D01*
Y476477D01*
Y476477D01*
Y476476D01*
X831004Y476477D01*
D02*
G37*
G36*
X830964Y472543D02*
Y472543D01*
Y472543D01*
Y472543D01*
Y472543D01*
Y472543D01*
D02*
G37*
%LPD*%
D12*
X839270Y403838D02*
G03*
X845546Y404319I-140J42999D01*
G01*
X844980Y429006D02*
G03*
X851031Y430578I-6035J35650D01*
G01*
X870642Y420899D02*
G03*
X865234Y437286I-29435J-628D01*
G01*
X839270Y403838D02*
G03*
X844980Y429006I-25186J18945D01*
G01*
X845546Y404319D02*
G03*
X851031Y430578I-26708J19282D01*
G01*
X891581Y432155D02*
G03*
X870642Y420899I-764J-23683D01*
G01*
X891581Y432155D02*
G03*
X865234Y437286I-16782J-15964D01*
G01*
D38*
X932180Y394970D02*
D03*
Y420370D02*
D03*
Y445770D02*
D03*
D39*
Y471170D02*
D03*
D48*
X830925Y475975D02*
G03*
X820816Y476060I-5051J502D01*
G01*
X822078Y469580D02*
X830910Y472543D01*
X820799Y476477D02*
X822078Y469580D01*
X830910Y472543D02*
X830950Y476477D01*
D49*
X958370Y464320D02*
D03*
Y451820D02*
D03*
Y401820D02*
D03*
Y414320D02*
D03*
Y426820D02*
D03*
Y439320D02*
D03*
D50*
X991870Y383320D02*
D03*
Y482820D02*
D03*
M02*
